<svg version="1.1" xmlns="http://www.w3.org/2000/svg" xmlns:xlink="http://www.w3.org/1999/xlink" x="0px" y="0px" viewBox="-47 170.9 500 500" style="enable-background:new -47 170.9 500 500;" xml:space="preserve">

	<g id="icon-mask" fill="#FFFFFF">
				
		<g id="wrap">
			<path d="M356.7,434.2c1.7-8.6,3.1-17.3,4-26.1c0.8-7.6,1.5-15.2,2-22.9c2.2-1.5,4.3-3,6.3-4.8 c1.9-1.8,3.2-3.8,4-6.2c0.7-3.2,1-7.2,1-11.3c-0.6-42-2.9-91.4-26.4-127.6c-15.5-24-38.3-42.9-65.8-51.6 c-22.3-6.9-49.2-12.7-73-13c-39.7-0.6-95.7,8-123.7,33.3c-24.6,22.3-38.2,54.1-44.5,86.1c-2.8,13.8-9,44-7,67.3 c-8.7,0.9-17.6,3.8-25.1,6.5c-11.1,3.8-27.1,7.4-35.1,16.7c-3.7,4.3-5,10.3-2.2,14.9c5.9,9.4,20.3,10,31.4,11.1 c15.3,1.6,30.7,3.2,46.2,4.9c0.9,7.7,2.1,15.3,3.6,22.8c-19.5-6.8-23.3,13.8-20.2,27c4.2,17.4,18.3,33.4,38.4,43.6 c1.9,7,3.7,14.1,5.4,21.3c5.5,23.4,10.2,48.6,21.1,70.8c6,12.2,13.9,22.3,23,32.3c9,9.9,16.2,21.5,27,29.8 c16.8,13.1,37.3,11.6,57.5,11.8c20.2-0.1,40.7,1.3,57.5-11.8c10.8-8.3,18-19.9,27-29.8c9.1-10,17-20,23-32.3 c10.9-22.1,15.6-47.3,21.1-70.8c1.6-7.1,3.5-14.2,5.3-21.2c4-2,7.8-4.2,11.2-6.7c0.1,0,0.1,0,0.2,0c3,0,5.5-2.1,6.2-5 c10.7-9.1,18.1-20.3,20.9-32C380.2,447.9,376.3,427.3,356.7,434.2z M336,472.1c-0.9,1.2-2.5,1.8-5.2,2.1 c-1.2,15.3-9,34.5-23.4,43.6c-6.3,4-13.3,6-20.6,6c-8.3,0-16.8-2.5-25.4-7.4c-7.5-4.3-14.6-10-20.6-17 c-6.9-7.7-18.6-23.1-20.9-38.9c-0.1-0.3-0.1-0.4-0.1-0.7c-1.9-2.1-3.8-3.5-5.9-4.7c-1.3-0.7-2.7-1.2-4.1-1.6 c-0.1,0-0.4-0.1-0.6-0.1c-0.4-0.1-0.7-0.3-1.2-0.3c-0.6-0.1-1-0.3-1.6-0.3c-0.1,0-0.4,0-0.7,0c-0.4,0-0.9,0-1.3,0 c-0.4,0-0.9,0-1.3,0c-0.3,0.1-0.6,0.1-0.9,0.1c-0.4,0-1,0-1.5,0.1c-0.3,0.1-0.7,0.1-1.2,0.3l-0.4,0.1c-1.5,0.4-2.8,0.9-4.1,1.6 c-2.1,1.2-4.1,2.8-5.9,4.7c-0.1,0.3-0.1,0.4-0.1,0.7c-2.4,15.8-14.2,31.1-20.9,38.9c-6,6.9-13.1,12.7-20.6,17 c-8.6,4.9-17.1,7.4-25.4,7.4c-7.4,0-14.3-2.1-20.6-6c-14.4-9-22.1-28.3-23.4-43.6c-2.7-0.3-4.3-0.9-5.2-2.1 c-0.3-0.6-0.7-1.6-0.3-3.1c0.9-2.9,3.4-3.7,5.6-3.8c0.3-1.6,0.4-3.2,0.9-4.7c3.7-14.9,15.6-27.6,30.4-32.3 c9.9-3.1,20.5-3.5,28.6-3.5c3.5,0,7.1,0,10.3,0.1c6.2,0.1,12.8,0.6,19,2.5c2.4-1,5.2-1.3,7.7-1.6c6.3-0.7,13-1.2,19.9-1.5 c2.8-0.1,5.6-0.1,8.8-0.1h1h0.9c3.2,0,6,0,8.8,0.1c7.1,0.3,13.6,0.7,19.9,1.5c2.5,0.1,5.3,0.6,7.7,1.6c6.2-1.8,12.8-2.4,19-2.5 c3.4,0,6.9-0.1,10.3-0.1c8.1,0,18.7,0.3,28.6,3.5c14.9,4.7,26.7,17.4,30.4,32.3c0.4,1.5,0.7,3.1,0.9,4.7c2.2,0.1,4.7,0.9,5.6,3.8 C337.1,470.5,336.6,471.5,336,472.1z"/>
			<path d="M230.8,430.5c-6.9-0.3-13.9-0.4-19-0.4c-1.5,0-2.8,0-4.3,0h-3.1h-3.1c-1.5,0-2.8,0-4.3,0 c-5.3,0-12.1,0.1-19,0.4h-0.9c-0.7,0.1-1.5,0.1-2.2,0.1c1.6,0.9,3.1,1.9,4.6,3.2c5.6,4.9,8.7,10.9,9.6,17.8 c0.7-0.7,1.6-1.2,2.5-1.8c0.3-0.4,0.7-0.7,1.2-1c3.4-1.5,7.1-2.4,10.9-2.4c0.3,0,0.6,0,0.9,0c0.1,0,0.4,0,0.7,0 c3.8,0,7.5,0.7,10.9,2.4c0.6,0.1,0.9,0.6,1.2,1c0.9,0.6,1.6,1.2,2.5,1.8c0.9-6.9,4.1-13,9.4-17.8c1.5-1.3,2.9-2.4,4.6-3.2 c-0.7-0.1-1.5-0.1-2.2-0.1H230.8z"/>
		</g>
		
	</g>

</svg>