<svg version="1.1" xmlns="http://www.w3.org/2000/svg" xmlns:xlink="http://www.w3.org/1999/xlink" x="0px" y="0px" viewBox="-47 170.9 500 500" style="enable-background:new -47 170.9 500 500;" xml:space="preserve">

	<path id="background" fill="#FFC83B" d="M453.1,238.5c0-37.3-30.2-67.6-67.6-67.6H20.6c-37.3,0-67.7,30.2-67.7,67.6v364.8 c0,37.3,30.2,67.6,67.6,67.6h364.8c37.3,0,67.6-30.2,67.6-67.6V238.5H453.1z"/>

	<g id="icon" fill="#FFFFFF">

		<g id="wrapper">
			<path d="M313.7,430.7c1.2-6.2,2.2-12.4,2.9-18.8c0.6-5.5,1-11,1.4-16.5c1.6-1.1,3.1-2.2,4.5-3.5 c1.4-1.3,2.3-2.8,2.9-4.5c0.5-2.3,0.7-5.2,0.7-8.2c-0.4-30.2-2.1-65.8-19-91.9c-11.1-17.3-27.6-30.9-47.3-37.1 c-16-5-35.5-9.1-52.5-9.3c-28.6-0.4-68.9,5.7-89.1,24c-17.7,16-27.5,38.9-32.1,62c-2,9.9-6.5,31.7-5,48.5 c-6.3,0.6-12.7,2.8-18.1,4.7c-8,2.8-19.5,5.3-25.3,12c-2.7,3.1-3.6,7.4-1.6,10.7c4.2,6.8,14.6,7.2,22.6,8 c11,1.1,22.1,2.3,33.3,3.5c0.6,5.5,1.5,11,2.6,16.4c-14.1-4.9-16.8,9.9-14.5,19.4c3,12.5,13.2,24.1,27.7,31.4 c1.4,5.1,2.7,10.2,3.9,15.3c3.9,16.9,7.3,35,15.2,50.9c4.4,8.8,10,16,16.6,23.2c6.5,7.1,11.7,15.5,19.4,21.4 c12.1,9.4,26.9,8.4,41.4,8.5c14.5-0.1,29.3,1,41.4-8.5c7.7-5.9,12.9-14.3,19.4-21.4c6.6-7.2,12.2-14.4,16.6-23.2 c7.9-15.9,11.3-34.1,15.2-50.9c1.2-5.1,2.5-10.2,3.8-15.3c2.9-1.4,5.6-3.1,8.1-4.8c0.1,0,0.1,0,0.2,0c2.2,0,4-1.5,4.4-3.6 c7.7-6.6,13-14.6,15.1-23.1C330.6,440.6,327.8,425.7,313.7,430.7z M298.8,457.9c-0.6,0.8-1.8,1.3-3.7,1.5 c-0.8,11-6.5,24.8-16.9,31.4c-4.6,2.9-9.6,4.4-14.9,4.4c-5.9,0-12.1-1.8-18.3-5.3c-5.4-3.1-10.5-7.2-14.9-12.2 c-5-5.5-13.4-16.7-15.1-28c-0.1-0.2-0.1-0.3-0.1-0.5c-1.4-1.5-2.8-2.5-4.2-3.4c-1-0.5-1.9-0.8-3-1.2c-0.1,0-0.3-0.1-0.4-0.1 c-0.3-0.1-0.5-0.2-0.8-0.2c-0.4-0.1-0.7-0.2-1.2-0.2c-0.1,0-0.3,0-0.5,0c-0.3,0-0.6,0-1,0c-0.3,0-0.6,0-1,0 c-0.2,0.1-0.4,0.1-0.6,0.1c-0.3,0-0.7,0-1.1,0.1c-0.2,0.1-0.5,0.1-0.8,0.2l-0.3,0.1c-1.1,0.3-2,0.6-3,1.2c-1.5,0.8-3,2-4.2,3.4 c-0.1,0.2-0.1,0.3-0.1,0.5c-1.7,11.4-10.2,22.4-15.1,28c-4.4,5-9.4,9.1-14.9,12.2c-6.2,3.5-12.3,5.3-18.3,5.3 c-5.3,0-10.3-1.5-14.9-4.4c-10.4-6.5-15.9-20.4-16.9-31.4c-1.9-0.2-3.1-0.6-3.7-1.5c-0.2-0.4-0.5-1.2-0.2-2.2 c0.6-2.1,2.4-2.7,4-2.8c0.2-1.2,0.3-2.3,0.6-3.4c2.7-10.7,11.3-19.8,21.9-23.2c7.1-2.2,14.8-2.5,20.6-2.5c2.5,0,5.1,0,7.4,0.1 c4.5,0.1,9.2,0.4,13.7,1.8c1.7-0.7,3.7-1,5.5-1.2c4.6-0.5,9.3-0.8,14.3-1.1c2-0.1,4-0.1,6.4-0.1h0.7h0.6c2.3,0,4.4,0,6.4,0.1 c5.1,0.2,9.8,0.5,14.3,1.1c1.8,0.1,3.8,0.4,5.5,1.2c4.5-1.3,9.2-1.7,13.7-1.8c2.4,0,5-0.1,7.4-0.1c5.8,0,13.5,0.2,20.6,2.5 c10.7,3.4,19.2,12.5,21.9,23.2c0.3,1.1,0.5,2.2,0.6,3.4c1.6,0.1,3.4,0.6,4,2.8C299.5,456.8,299.2,457.5,298.8,457.9z"/>
			<path d="M223,428c-5-0.2-10-0.3-13.7-0.3c-1.1,0-2,0-3.1,0H204h-2.2c-1.1,0-2,0-3.1,0 c-3.8,0-8.7,0.1-13.7,0.3h-0.6c-0.5,0.1-1.1,0.1-1.6,0.1c1.2,0.6,2.2,1.4,3.3,2.3c4,3.5,6.3,7.9,6.9,12.8c0.5-0.5,1.2-0.8,1.8-1.3 c0.2-0.3,0.5-0.5,0.8-0.7c2.4-1.1,5.1-1.7,7.9-1.7c0.2,0,0.4,0,0.6,0c0.1,0,0.3,0,0.5,0c2.8,0,5.4,0.5,7.9,1.7 c0.4,0.1,0.6,0.4,0.8,0.7c0.6,0.4,1.2,0.8,1.8,1.3c0.6-5,3-9.3,6.8-12.8c1.1-1,2.1-1.7,3.3-2.3c-0.5-0.1-1.1-0.1-1.6-0.1H223z"/>
		</g>

	</g>
	
</svg>